<svg id="Layer_1" data-name="Layer 1" xmlns="http://www.w3.org/2000/svg" viewBox="0 0 120 120"><defs><style>.cls-1{fill:#fff;}.cls-2{fill:#010a05;}.cls-2,.cls-3{stroke:#00a651;stroke-miterlimit:10;}.cls-3{fill:none;}.cls-4{fill:#00a651;}</style></defs><title>bcLogoFinalweb</title><rect class="cls-1" width="120" height="120"/><rect class="cls-2" x="8.75" y="9.16" width="102.34" height="102.34" rx="13.17" ry="13.17"/><path class="cls-3" d="M49.37,68.72V62.5H90.85c1,0,1.69-3,1.9-6.22H49.37V50.05H92.75a27.37,27.37,0,0,0-1.9-6.22H49.37V37.6H91.92C85.07,25.25,70.33,17.48,54.09,20.46,40.66,22.93,29.7,33.13,26.88,45.89,22.1,67.48,39.23,86.5,61,86.5a35.18,35.18,0,0,0,30.9-17.78H49.37Z"/><path class="cls-4" d="M31.7,91.29h3.12a2.23,2.23,0,0,1,2.32,2.16A1.83,1.83,0,0,1,36.3,95v0A2.18,2.18,0,0,1,37.43,97a2.12,2.12,0,0,1-2.32,2H31.7Zm2.78,3.08a.72.72,0,1,0,0-1.43h-.9v1.43Zm.24,3a.65.65,0,0,0,.72-.67.68.68,0,0,0-.72-.68H33.58v1.35Z"/><path class="cls-4" d="M40.82,91h.33l3.79,8h-2l-.39-.8H39.47l-.37.8h-2Zm1.06,5.83-.89-2h0l-.9,2Z"/><path class="cls-4" d="M45.28,91.29h3.23a2.47,2.47,0,0,1,2.74,2.46,2.23,2.23,0,0,1-1.83,2.4L51.51,99H49.14l-2-2.88V99H45.28Zm3.41,3.35a.88.88,0,0,0-.05-1.74H47.17v1.74Z"/><path class="cls-4" d="M56,91a4.31,4.31,0,0,1,3.31,1.42L58,93.69a2.87,2.87,0,0,0-2-.86,2.33,2.33,0,0,0,0,4.66,2.87,2.87,0,0,0,2-.86l1.26,1.24A4.39,4.39,0,0,1,56,99.28,4.12,4.12,0,1,1,56,91Z"/><path class="cls-4" d="M59.69,91.29h1.89v3h3v-3h1.88V99H64.61V96h-3V99H59.69Z"/><path class="cls-4" d="M67.24,91.29h5.11V93H69.14v1.39h3V96h-3v1.39H72.5V99H67.24Z"/><path class="cls-4" d="M73.5,91.29h5V93H75.4v1.65h2.85v1.65H75.4V99H73.5Z"/><path class="cls-4" d="M78.94,97.43a.89.89,0,1,1-.93.89A.85.85,0,0,1,78.94,97.43Z"/><path class="cls-4" d="M83.48,94a2.74,2.74,0,0,1,2.1.9l-.83.78a1.82,1.82,0,0,0-1.27-.55,1.48,1.48,0,0,0,0,3,1.82,1.82,0,0,0,1.27-.55l.8.78a2.78,2.78,0,0,1-2.07.9,2.61,2.61,0,1,1,0-5.22Z"/><path class="cls-4" d="M88.11,94a2.61,2.61,0,1,1-2.64,2.61A2.56,2.56,0,0,1,88.11,94Zm0,4.09a1.48,1.48,0,1,0-1.42-1.48A1.4,1.4,0,0,0,88.11,98Z"/></svg>