<?xml version="1.0" encoding="utf-8"?>
<!-- Generator: Adobe Illustrator 21.0.1, SVG Export Plug-In . SVG Version: 6.00 Build 0)  -->
<svg version="1.1" id="Layer_1" xmlns="http://www.w3.org/2000/svg" xmlns:xlink="http://www.w3.org/1999/xlink" x="0px" y="0px"
	 viewBox="0 0 1450 1000" style="enable-background:new 0 0 1450 1000;" xml:space="preserve">
<style type="text/css">
	.st0{fill:#0B13AD;stroke:#231F20;stroke-miterlimit:10;}
	.st1{fill:#61E1F2;}
	.st2{fill:#FFFFFF;}
</style>
<rect class="st0" width="1450" height="1000"/>
<g>
	<path class="st1" d="M549.3,405.6c2.3,0,4.5,0.7,6.6,2.1c2.1,1.4,3.9,3.2,5.5,5.5c1.6,2.3,2.8,5.1,3.7,8.2
		c0.9,3.2,1.3,6.5,1.3,10.1v29.4c0,3.6-0.4,6.9-1.3,10.1c-0.9,3.2-2.1,5.9-3.7,8.2c-1.6,2.3-3.4,4.2-5.5,5.5
		c-2.1,1.4-4.3,2.1-6.6,2.1h-6.9c-1.5,0-2.7-0.2-3.7-0.5c-1-0.3-1.5-0.7-1.5-1.3v1.7h-22.4V376.3h22.4v31.1c0-0.5,0.5-0.9,1.5-1.3
		c1-0.3,2.2-0.5,3.7-0.5H549.3z M537.1,460.9c0,1.9,0.3,3.5,1,4.9c0.7,1.4,1.5,2.1,2.4,2.1c0.9,0,1.8-0.7,2.4-2.1c0.7-1.4,1-3,1-4.9
		v-29.4c0-1.9-0.3-3.5-1-4.9c-0.7-1.4-1.5-2.1-2.4-2.1c-0.9,0-1.8,0.7-2.4,2.1c-0.7,1.4-1,3-1,4.9V460.9z"/>
	<path class="st1" d="M570,376.3h22.4v22.4H570V376.3z M570,486.7v-81.1h22.4v81.1H570z"/>
	<path class="st1" d="M625.2,464.3c0,0.9,0.3,1.8,1,2.4c0.7,0.7,1.5,1,2.4,1h3.5v18.9h-12.8c-2.3,0-4.5-0.4-6.5-1.3
		c-2-0.8-3.8-2-5.3-3.6c-1.5-1.5-2.7-3.3-3.6-5.3c-0.8-2-1.3-4.2-1.3-6.5v-45.6h-6.9v-18.9h6.9v-29.4h22.4v29.4h6.9v18.9h-6.9V464.3
		z"/>
	<path class="st2" d="M706.2,407.7c2.1,1.4,3.9,3.2,5.5,5.5c1.6,2.3,2.8,5.1,3.7,8.2c0.9,3.2,1.3,6.5,1.3,10.1v55.2h-22.4v-55.2
		c0-1.9-0.3-3.5-1-4.9c-0.7-1.4-1.5-2.1-2.4-2.1s-1.8,0.7-2.4,2.1c-0.7,1.4-1,3-1,4.9v55.2H665v-55.2c0-1.9-0.3-3.5-1-4.9
		c-0.7-1.4-1.5-2.1-2.4-2.1c-0.9,0-1.8,0.7-2.4,2.1c-0.7,1.4-1,3-1,4.9v55.2h-22.4v-81.1H658v1.7c0-0.5,0.5-0.9,1.5-1.3
		c1-0.3,2.2-0.5,3.7-0.5h6.9c2.2,0,4.3,0.6,6.3,1.8c2,1.2,3.8,2.9,5.4,5c1.5-2.1,3.1-3.8,4.9-5c1.8-1.2,3.7-1.8,5.8-1.8h6.9
		C701.8,405.6,704,406.3,706.2,407.7z"/>
	<path class="st2" d="M749.5,405.6c3.2,0,6.1,0.7,8.8,2.1c2.7,1.4,5,3.2,7.1,5.5c2.1,2.3,3.7,5.1,4.8,8.2c1.2,3.2,1.7,6.5,1.7,10.1
		v24.1v5.2v25.9h-22.4V485c0,0.5-0.7,0.9-2,1.3c-1.3,0.3-3,0.5-5,0.5c-3.1,0-5.9-0.7-8.7-2.1c-2.7-1.4-5.1-3.2-7.2-5.5
		c-2.1-2.3-3.7-5-4.8-8.2c-1.2-3.2-1.7-6.5-1.7-10.1c0-2.9,0.6-5.7,1.7-8.4c1.1-2.6,2.7-4.9,4.7-6.9c2-1.9,4.3-3.5,6.9-4.7
		c2.6-1.2,5.4-1.7,8.4-1.7h5.2c1.7,0,2.5-0.8,2.5-2.5v-5.2c0-1.9-0.3-3.5-1-4.9c-0.7-1.4-1.5-2.1-2.4-2.1s-1.8,0.7-2.4,2.1
		c-0.7,1.4-1,3-1,4.9v5.2h-22.4v-5.2c0-3.6,0.6-6.9,1.7-10.1c1.2-3.2,2.8-5.9,4.8-8.2c2.1-2.3,4.4-4.2,7.2-5.5
		c2.7-1.4,5.6-2.1,8.7-2.1H749.5z M749.5,455.6v-2.5h-4.3c-0.7,0-1.4,0.2-1.9,0.7c-0.5,0.5-0.8,1.1-0.8,1.8v5.2c0,1.9,0.3,3.5,1,4.9
		c0.7,1.4,1.5,2.1,2.4,2.1s1.8-0.7,2.4-2.1c0.7-1.4,1-3,1-4.9V455.6z"/>
	<path class="st2" d="M827.2,405.6v84.6c0,3.6-0.6,6.9-1.7,10.1c-1.2,3.2-2.8,5.9-4.8,8.2c-2.1,2.3-4.4,4.2-7.2,5.5
		c-2.7,1.4-5.6,2.1-8.7,2.1h-6.9c-2.9,0-5.7-0.6-8.4-1.9c-2.6-1.3-4.9-3-6.9-5.1c-2-2.2-3.6-4.7-4.9-7.7c-1.3-2.9-2-6.1-2.2-9.5h0.2
		H798c0.2,1.5,0.6,2.7,1.2,3.7c0.6,1,1.3,1.5,2.1,1.5c0.9,0,1.8-0.7,2.4-2.1c0.7-1.4,1-3,1-4.9V485c0,0.5-0.5,0.9-1.5,1.3
		c-1,0.3-2.2,0.5-3.7,0.5h-6.9c-2.4,0-4.7-0.7-6.7-2.1c-2.1-1.4-3.9-3.2-5.4-5.5c-1.6-2.3-2.8-5-3.7-8.2c-0.9-3.2-1.3-6.5-1.3-10.1
		v-29.4c0-3.6,0.4-6.9,1.3-10.1c0.9-3.2,2.1-5.9,3.7-8.2c1.6-2.3,3.4-4.2,5.4-5.5c2.1-1.4,4.3-2.1,6.7-2.1h6.9
		c1.5,0,2.7,0.2,3.7,0.5c1,0.3,1.5,0.7,1.5,1.3v-1.7H827.2z M801.3,467.8c0.9,0,1.8-0.7,2.4-2.1c0.7-1.4,1-3,1-4.9v-29.4
		c0-1.9-0.3-3.5-1-4.9c-0.7-1.4-1.5-2.1-2.4-2.1c-0.9,0-1.8,0.7-2.4,2.1c-0.7,1.4-1,3-1,4.9v29.4c0,1.9,0.3,3.5,1,4.9
		C799.5,467.1,800.4,467.8,801.3,467.8z"/>
	<path class="st2" d="M830.7,376.3h22.4v22.4h-22.4V376.3z M830.7,486.7v-81.1h22.4v81.1H830.7z"/>
	<path class="st2" d="M908.3,451.1v9.8c0,3.6-0.6,6.9-1.7,10.1c-1.2,3.2-2.8,5.9-4.8,8.2c-2.1,2.3-4.4,4.2-7.1,5.5
		c-2.7,1.4-5.6,2.1-8.8,2.1h-6.9c-3.1,0-5.9-0.7-8.7-2.1c-2.7-1.4-5.1-3.2-7.2-5.5c-2.1-2.3-3.7-5-4.8-8.2
		c-1.2-3.2-1.7-6.5-1.7-10.1v-29.4c0-3.6,0.6-6.9,1.7-10.1c1.2-3.2,2.8-5.9,4.8-8.2c2.1-2.3,4.4-4.2,7.2-5.5
		c2.7-1.4,5.6-2.1,8.7-2.1h6.9c3.2,0,6.1,0.7,8.8,2.1c2.7,1.4,5,3.2,7.1,5.5c2.1,2.3,3.7,5.1,4.8,8.2c1.2,3.2,1.7,6.5,1.7,10.1v12.6
		h-22.4v-12.6c0-1.9-0.3-3.5-1-4.9c-0.7-1.4-1.5-2.1-2.4-2.1c-0.9,0-1.8,0.7-2.4,2.1c-0.7,1.4-1,3-1,4.9v29.4c0,1.9,0.3,3.5,1,4.9
		c0.7,1.4,1.5,2.1,2.4,2.1c0.9,0,1.8-0.7,2.4-2.1c0.7-1.4,1-3,1-4.9v-9.8H908.3z"/>
</g>
</svg>
