<?xml version="1.0" encoding="utf-8"?>
<!-- Generator: Adobe Illustrator 21.0.1, SVG Export Plug-In . SVG Version: 6.00 Build 0)  -->
<svg version="1.1" id="Layer_1" xmlns="http://www.w3.org/2000/svg" xmlns:xlink="http://www.w3.org/1999/xlink" x="0px" y="0px"
	 viewBox="0 0 1450 1000" style="enable-background:new 0 0 1450 1000;" xml:space="preserve">
<style type="text/css">
	.st0{fill:#0B13AD;stroke:#231F20;stroke-miterlimit:10;}
	.st1{fill:#0CE9EF;}
	.st2{fill:#FFFFFF;}
</style>
<rect class="st0" width="1450" height="1000"/>
<g>
	<path class="st1" d="M558.5,361.9c2.3,0,4.5,0.7,6.5,2c2.1,1.3,3.9,3.2,5.4,5.4c1.6,2.3,2.8,5,3.7,8.1s1.3,6.4,1.3,10v28.9
		c0,3.5-0.4,6.8-1.3,10c-0.9,3.1-2.1,5.8-3.7,8.1c-1.6,2.3-3.4,4.1-5.4,5.4c-2.1,1.3-4.3,2-6.5,2h-6.8c-1.5,0-2.7-0.2-3.7-0.5
		s-1.5-0.7-1.5-1.2v1.7h-22.1V332.9h22.1v30.6c0-0.5,0.5-0.9,1.5-1.2c1-0.3,2.2-0.5,3.7-0.5h6.8V361.9z M546.5,416.3
		c0,1.9,0.3,3.5,1,4.8s1.5,2,2.4,2s1.7-0.7,2.4-2s1-3,1-4.8v-28.9c0-1.9-0.3-3.5-1-4.8s-1.5-2-2.4-2s-1.7,0.7-2.4,2s-1,3-1,4.8
		V416.3z"/>
	<path class="st1" d="M578.8,332.9h22.1V355h-22.1V332.9z M578.8,441.8v-79.9h22.1v79.9H578.8z"/>
	<path class="st1" d="M633.3,419.7c0,0.9,0.3,1.7,1,2.4c0.7,0.7,1.5,1,2.4,1h3.4v18.7h-12.6c-2.3,0-4.4-0.4-6.4-1.2s-3.7-2-5.2-3.5
		s-2.7-3.2-3.5-5.2s-1.2-4.1-1.2-6.4v-44.9h-6.8v-18.7h6.8V333h22.1v28.9h6.8v18.7h-6.8V419.7z"/>
	<path class="st2" d="M713.1,363.9c2.1,1.3,3.9,3.2,5.4,5.4c1.6,2.3,2.8,5,3.7,8.1s1.3,6.4,1.3,10v54.4h-22.1v-54.4
		c0-1.9-0.3-3.5-1-4.8s-1.5-2-2.4-2s-1.7,0.7-2.4,2s-1,3-1,4.8v54.4h-22.1v-54.4c0-1.9-0.3-3.5-1-4.8s-1.5-2-2.4-2s-1.7,0.7-2.4,2
		s-1,3-1,4.8v54.4h-22.1v-79.9h22.1v1.7c0-0.5,0.5-0.9,1.5-1.2c1-0.3,2.2-0.5,3.7-0.5h6.8c2.2,0,4.3,0.6,6.2,1.8
		c2,1.2,3.7,2.8,5.3,4.9c1.5-2.1,3.1-3.7,4.8-4.9c1.8-1.2,3.7-1.8,5.8-1.8h6.8C708.8,361.9,711,362.5,713.1,363.9z"/>
	<path class="st2" d="M755.8,361.9c3.1,0,6,0.7,8.6,2s5,3.2,7,5.4c2,2.3,3.6,5,4.7,8.1c1.1,3.1,1.7,6.4,1.7,10v23.8v5.1v25.5h-22.1
		v-1.7c0,0.5-0.6,0.9-1.9,1.2c-1.3,0.3-2.9,0.5-4.9,0.5c-3,0-5.9-0.7-8.6-2c-2.7-1.3-5.1-3.2-7.1-5.4c-2-2.3-3.6-5-4.7-8.1
		c-1.1-3.1-1.7-6.4-1.7-10c0-2.9,0.5-5.6,1.6-8.2s2.6-4.8,4.6-6.8c2-1.9,4.2-3.4,6.8-4.6c2.5-1.1,5.3-1.7,8.3-1.7h5.1
		c1.7,0,2.5-0.8,2.5-2.5v-5.1c0-1.9-0.3-3.5-1-4.8s-1.5-2-2.4-2s-1.7,0.7-2.4,2s-1,3-1,4.8v5.1h-22.1v-5.1c0-3.5,0.6-6.8,1.7-10
		c1.1-3.1,2.7-5.8,4.7-8.1c2-2.3,4.4-4.1,7.1-5.4c2.7-1.3,5.5-2,8.6-2L755.8,361.9L755.8,361.9z M755.8,411.2v-2.5h-4.2
		c-0.7,0-1.3,0.2-1.9,0.7c-0.5,0.5-0.8,1.1-0.8,1.8v5.1c0,1.9,0.3,3.5,1,4.8s1.5,2,2.4,2s1.7-0.7,2.4-2s1-3,1-4.8L755.8,411.2
		L755.8,411.2z"/>
	<path class="st2" d="M832.4,361.9v83.4c0,3.5-0.6,6.8-1.7,10c-1.1,3.1-2.7,5.8-4.7,8.1s-4.4,4.1-7.1,5.4c-2.7,1.3-5.5,2-8.6,2h-6.8
		c-2.9,0-5.7-0.6-8.2-1.9c-2.6-1.2-4.9-2.9-6.8-5.1c-2-2.1-3.6-4.6-4.8-7.5s-2-6-2.2-9.3h0.2h22.1c0.2,1.5,0.6,2.7,1.2,3.7
		c0.6,1,1.3,1.5,2.1,1.5c0.9,0,1.7-0.7,2.4-2s1-3,1-4.8v-5.1c0,0.5-0.5,0.9-1.5,1.2s-2.2,0.5-3.7,0.5h-6.8c-2.4,0-4.6-0.7-6.6-2
		s-3.8-3.2-5.4-5.4c-1.6-2.3-2.8-5-3.7-8.1s-1.3-6.4-1.3-10v-28.9c0-3.5,0.4-6.8,1.3-10c0.9-3.1,2.1-5.8,3.7-8.1
		c1.6-2.3,3.3-4.1,5.4-5.4c2-1.3,4.2-2,6.6-2h6.8c1.5,0,2.7,0.2,3.7,0.5s1.5,0.7,1.5,1.2v-1.7h21.9V361.9z M806.8,423.1
		c0.9,0,1.7-0.7,2.4-2s1-3,1-4.8v-28.9c0-1.9-0.3-3.5-1-4.8s-1.5-2-2.4-2s-1.7,0.7-2.4,2s-1,3-1,4.8v28.9c0,1.9,0.3,3.5,1,4.8
		C805.1,422.5,805.9,423.1,806.8,423.1z"/>
	<path class="st2" d="M835.8,332.9h22.1V355h-22.1V332.9z M835.8,441.8v-79.9h22.1v79.9H835.8z"/>
	<path class="st2" d="M883.4,441.8h-22.1V332.9h22.1v47.7l6.8-18.8h22.1l-14.5,40l14.5,40h-22.1l-6.8-18.8V441.8z"/>
</g>
</svg>
