<?xml version="1.0" encoding="utf-8"?>
<!-- Generator: Adobe Illustrator 21.0.1, SVG Export Plug-In . SVG Version: 6.00 Build 0)  -->
<svg version="1.1" id="Layer_1" xmlns="http://www.w3.org/2000/svg" xmlns:xlink="http://www.w3.org/1999/xlink" x="0px" y="0px"
	 viewBox="0 0 77.7 14.6" style="enable-background:new 0 0 77.7 14.6;" xml:space="preserve">
<style type="text/css">
	.st0{fill:#0B13AD;}
</style>
<g>
	<path class="st0" d="M39.3,6.3c0.1,0,0.2,0,0.4,0.1c0.1,0.1,0.2,0.2,0.3,0.3c0.1,0.1,0.2,0.3,0.2,0.4c0,0.2,0.1,0.4,0.1,0.6v1.6
		c0,0.2,0,0.4-0.1,0.6c0,0.2-0.1,0.3-0.2,0.4c-0.1,0.1-0.2,0.2-0.3,0.3c-0.1,0.1-0.2,0.1-0.4,0.1h-0.4c-0.1,0-0.1,0-0.2,0
		c-0.1,0-0.1,0-0.1-0.1v0.1h-1.2v-6h1.2v1.7c0,0,0-0.1,0.1-0.1c0.1,0,0.1,0,0.2,0H39.3z M38.7,9.3c0,0.1,0,0.2,0.1,0.3
		c0,0.1,0.1,0.1,0.1,0.1c0.1,0,0.1,0,0.1-0.1C39,9.5,39,9.4,39,9.3V7.7c0-0.1,0-0.2-0.1-0.3c0-0.1-0.1-0.1-0.1-0.1
		c-0.1,0-0.1,0-0.1,0.1c0,0.1-0.1,0.2-0.1,0.3V9.3z"/>
	<path class="st0" d="M40.5,4.7h1.2V6h-1.2V4.7z M40.5,10.8V6.3h1.2v4.4H40.5z"/>
	<path class="st0" d="M43.5,9.5c0,0.1,0,0.1,0.1,0.1c0,0,0.1,0.1,0.1,0.1h0.2v1h-0.7c-0.1,0-0.2,0-0.4-0.1c-0.1,0-0.2-0.1-0.3-0.2
		c-0.1-0.1-0.1-0.2-0.2-0.3c0-0.1-0.1-0.2-0.1-0.4V7.4h-0.4v-1h0.4V4.7h1.2v1.6h0.4v1h-0.4V9.5z"/>
	<path class="st0" d="M48,6.4c0.1,0.1,0.2,0.2,0.3,0.3c0.1,0.1,0.2,0.3,0.2,0.4c0,0.2,0.1,0.4,0.1,0.6v3h-1.2v-3
		c0-0.1,0-0.2-0.1-0.3c0-0.1-0.1-0.1-0.1-0.1c-0.1,0-0.1,0-0.1,0.1C47,7.6,47,7.6,47,7.7v3h-1.2v-3c0-0.1,0-0.2-0.1-0.3
		c0-0.1-0.1-0.1-0.1-0.1c-0.1,0-0.1,0-0.1,0.1c0,0.1-0.1,0.2-0.1,0.3v3h-1.2V6.3h1.2v0.1c0,0,0-0.1,0.1-0.1c0.1,0,0.1,0,0.2,0H46
		c0.1,0,0.2,0,0.3,0.1c0.1,0.1,0.2,0.2,0.3,0.3c0.1-0.1,0.2-0.2,0.3-0.3c0.1-0.1,0.2-0.1,0.3-0.1h0.4C47.8,6.3,47.9,6.4,48,6.4z"/>
	<path class="st0" d="M50.4,6.3c0.2,0,0.3,0,0.5,0.1c0.1,0.1,0.3,0.2,0.4,0.3s0.2,0.3,0.3,0.4c0.1,0.2,0.1,0.4,0.1,0.6v1.3v0.3v1.4
		h-1.2v-0.1c0,0,0,0.1-0.1,0.1c-0.1,0-0.2,0-0.3,0c-0.2,0-0.3,0-0.5-0.1c-0.1-0.1-0.3-0.2-0.4-0.3c-0.1-0.1-0.2-0.3-0.3-0.4
		c-0.1-0.2-0.1-0.4-0.1-0.6c0-0.2,0-0.3,0.1-0.5c0.1-0.1,0.1-0.3,0.3-0.4c0.1-0.1,0.2-0.2,0.4-0.3c0.1-0.1,0.3-0.1,0.5-0.1h0.3
		c0.1,0,0.1,0,0.1-0.1V7.7c0-0.1,0-0.2-0.1-0.3c0-0.1-0.1-0.1-0.1-0.1c-0.1,0-0.1,0-0.1,0.1C50,7.6,50,7.6,50,7.7V8h-1.2V7.7
		c0-0.2,0-0.4,0.1-0.6C49,7,49,6.9,49.2,6.7s0.2-0.2,0.4-0.3c0.1-0.1,0.3-0.1,0.5-0.1H50.4z M50.4,9.1V8.9h-0.2c0,0-0.1,0-0.1,0
		c0,0,0,0.1,0,0.1v0.3c0,0.1,0,0.2,0.1,0.3c0,0.1,0.1,0.1,0.1,0.1c0.1,0,0.1,0,0.1-0.1c0-0.1,0.1-0.2,0.1-0.3V9.1z"/>
	<path class="st0" d="M54.7,6.3v4.6c0,0.2,0,0.4-0.1,0.6c-0.1,0.2-0.2,0.3-0.3,0.4c-0.1,0.1-0.2,0.2-0.4,0.3
		c-0.1,0.1-0.3,0.1-0.5,0.1h-0.4c-0.2,0-0.3,0-0.5-0.1c-0.1-0.1-0.3-0.2-0.4-0.3c-0.1-0.1-0.2-0.3-0.3-0.4c-0.1-0.2-0.1-0.3-0.1-0.5
		h0h1.2c0,0.1,0,0.1,0.1,0.2c0,0.1,0.1,0.1,0.1,0.1c0.1,0,0.1,0,0.1-0.1c0-0.1,0.1-0.2,0.1-0.3v-0.3c0,0,0,0.1-0.1,0.1
		c-0.1,0-0.1,0-0.2,0h-0.4c-0.1,0-0.3,0-0.4-0.1c-0.1-0.1-0.2-0.2-0.3-0.3c-0.1-0.1-0.2-0.3-0.2-0.4c0-0.2-0.1-0.4-0.1-0.6V7.7
		c0-0.2,0-0.4,0.1-0.6C52,7,52,6.9,52.1,6.7c0.1-0.1,0.2-0.2,0.3-0.3c0.1-0.1,0.2-0.1,0.4-0.1h0.4c0.1,0,0.1,0,0.2,0
		c0.1,0,0.1,0,0.1,0.1V6.3H54.7z M53.3,9.7c0.1,0,0.1,0,0.1-0.1c0-0.1,0.1-0.2,0.1-0.3V7.7c0-0.1,0-0.2-0.1-0.3
		c0-0.1-0.1-0.1-0.1-0.1c-0.1,0-0.1,0-0.1,0.1c0,0.1-0.1,0.2-0.1,0.3v1.6c0,0.1,0,0.2,0.1,0.3C53.2,9.7,53.2,9.7,53.3,9.7z"/>
	<path class="st0" d="M54.9,4.7h1.2V6h-1.2V4.7z M54.9,10.8V6.3h1.2v4.4H54.9z"/>
	<path class="st0" d="M57.6,10.8h-1.2v-6h1.2v2.6l0.4-1h1.2l-0.8,2.2l0.8,2.2H58l-0.4-1V10.8z"/>
	<g>
		<path class="st0" d="M18.2,7.5l0.6,2.5l0.6-2.5H20l0.6,2.5l0.6-2.5h0.5l-0.9,3.1h-0.5l-0.6-2.4l-0.6,2.4h-0.5l-0.9-3.1H18.2z"/>
		<path class="st0" d="M24.3,7.6c0.2,0.1,0.4,0.2,0.5,0.4c0.1,0.2,0.2,0.3,0.2,0.6c0,0.1,0,0.4,0,0.7h-2.3c0,0.3,0.1,0.6,0.2,0.8
			c0.1,0.2,0.4,0.3,0.6,0.3c0.3,0,0.5-0.1,0.7-0.3c0.1-0.1,0.2-0.2,0.2-0.4H25c0,0.1-0.1,0.2-0.1,0.4s-0.2,0.3-0.3,0.3
			c-0.2,0.2-0.4,0.3-0.6,0.3c-0.1,0-0.3,0-0.4,0c-0.4,0-0.7-0.1-1-0.4c-0.3-0.3-0.4-0.7-0.4-1.2c0-0.5,0.1-0.9,0.4-1.2
			c0.3-0.3,0.6-0.5,1.1-0.5C23.8,7.4,24.1,7.5,24.3,7.6z M24.5,8.8c0-0.2-0.1-0.4-0.1-0.5c-0.1-0.3-0.4-0.4-0.7-0.4
			c-0.2,0-0.4,0.1-0.6,0.3c-0.2,0.2-0.2,0.4-0.3,0.7H24.5z"/>
		<path class="st0" d="M29.1,8.8c0.1,0,0.2-0.1,0.2-0.2c0,0,0-0.1,0-0.2c0-0.2-0.1-0.3-0.2-0.4c-0.1-0.1-0.3-0.1-0.5-0.1
			c-0.3,0-0.5,0.1-0.6,0.2c-0.1,0.1-0.1,0.2-0.1,0.4h-0.5c0-0.4,0.1-0.7,0.4-0.8s0.5-0.2,0.8-0.2c0.4,0,0.7,0.1,0.9,0.2
			c0.2,0.1,0.3,0.4,0.3,0.7v1.8c0,0.1,0,0.1,0,0.1s0.1,0,0.1,0c0,0,0,0,0.1,0s0.1,0,0.1,0v0.4c-0.1,0-0.1,0-0.2,0s-0.1,0-0.2,0
			c-0.2,0-0.3-0.1-0.4-0.2c0-0.1-0.1-0.2-0.1-0.3c-0.1,0.1-0.3,0.3-0.5,0.4s-0.4,0.2-0.7,0.2c-0.3,0-0.5-0.1-0.7-0.3
			c-0.2-0.2-0.3-0.4-0.3-0.7c0-0.3,0.1-0.5,0.3-0.7s0.4-0.3,0.7-0.3L29.1,8.8z M28,10.2c0.1,0.1,0.2,0.1,0.4,0.1
			c0.2,0,0.4,0,0.5-0.1c0.3-0.1,0.4-0.4,0.4-0.7V9.1c-0.1,0-0.1,0.1-0.2,0.1s-0.2,0-0.3,0.1l-0.3,0c-0.2,0-0.3,0.1-0.4,0.1
			c-0.2,0.1-0.2,0.2-0.2,0.4C27.8,10,27.9,10.1,28,10.2z"/>
		<path class="st0" d="M30.8,7.5h0.5v0.5c0-0.1,0.1-0.2,0.3-0.4s0.3-0.2,0.6-0.2c0,0,0,0,0,0s0.1,0,0.1,0V8c0,0-0.1,0-0.1,0
			c0,0-0.1,0-0.1,0c-0.3,0-0.5,0.1-0.6,0.3s-0.2,0.4-0.2,0.6v1.8h-0.5V7.5z"/>
		<path class="st0" d="M34.7,7.6c0.2,0.1,0.4,0.2,0.5,0.4c0.1,0.2,0.2,0.3,0.2,0.6c0,0.1,0,0.4,0,0.7h-2.3c0,0.3,0.1,0.6,0.2,0.8
			c0.1,0.2,0.4,0.3,0.6,0.3c0.3,0,0.5-0.1,0.7-0.3c0.1-0.1,0.2-0.2,0.2-0.4h0.5c0,0.1-0.1,0.2-0.1,0.4s-0.2,0.3-0.3,0.3
			c-0.2,0.2-0.4,0.3-0.6,0.3c-0.1,0-0.3,0-0.4,0c-0.4,0-0.7-0.1-1-0.4c-0.3-0.3-0.4-0.7-0.4-1.2c0-0.5,0.1-0.9,0.4-1.2
			c0.3-0.3,0.6-0.5,1.1-0.5C34.3,7.4,34.5,7.5,34.7,7.6z M34.9,8.8c0-0.2-0.1-0.4-0.1-0.5c-0.1-0.3-0.4-0.4-0.7-0.4
			c-0.2,0-0.4,0.1-0.6,0.3c-0.2,0.2-0.2,0.4-0.3,0.7H34.9z"/>
	</g>
</g>
</svg>
