<svg id="Layer_1" data-name="Layer 1" xmlns="http://www.w3.org/2000/svg" xmlns:xlink="http://www.w3.org/1999/xlink" viewBox="0 0 576 383.95"><defs><style>.cls-1{fill:#fff;}.cls-2{fill:#005e9d;}.cls-3{fill:#cdcfd0;}.cls-4{fill:#003b69;}.cls-5{fill:#00aeef;}.cls-6{fill:#919396;}.cls-7{fill:#7d7e81;}.cls-8{fill:url(#linear-gradient);}</style><linearGradient id="linear-gradient" x1="510.89" y1="167.2" x2="371.95" y2="160.76" gradientUnits="userSpaceOnUse"><stop offset="0" stop-color="#cdcfd0"/><stop offset="1" stop-color="#7d7e81"/></linearGradient></defs><title>logo2</title><rect class="cls-1" width="576" height="383.95"/><path class="cls-2" d="M64.53,286.87c-5.54,0-7.15-2.67-5.94-8.07h3.1c-.75,3.48-.43,5.8,3.48,5.8,2.95,0,4.73-1.66,5.33-4.49,1.43-6.66-10.48-4.94-8.67-13.36,1-4.69,4.61-6.35,9.08-6.35,5.08,0,6,3.48,5.13,7.36H73c.54-3.23,0-4.94-3.41-4.94a4.72,4.72,0,0,0-4.7,3.68c-1.36,6.35,10.54,4.64,8.71,13.16C72.62,284.45,69.3,286.87,64.53,286.87Z"/><path class="cls-2" d="M85.17,276.39l1.18-5.5c1.42-6.6,5.09-10.49,11.09-10.49s8,3.88,6.59,10.49l-1.18,5.5c-1.42,6.6-5.09,10.49-11.09,10.49S83.75,283,85.17,276.39Zm3.64-2.77c-1.43,6.65-1.56,10.84,3.47,10.84s6.69-4.18,8.12-10.84,1.55-10.79-3.48-10.79S90.22,267,88.81,273.61Z"/><path class="cls-2" d="M134,260.91l-5.46,25.46h-2.64l.61-2.82h-.1c-2.24,2.17-4.32,3.33-7.17,3.33-5.28,0-5.94-3.83-5.05-8l3.86-18h3L117.3,278.4c-.15.71-1.45,6,3,6,4.12,0,6.41-3.83,6.79-5.6l3.85-17.95Z"/><path class="cls-2" d="M149,264.34h.1A10,10,0,0,1,157,260.4l-.66,3.08a7.82,7.82,0,0,0-8.56,6.5l-3.51,16.38h-3l5.46-25.46h3Z"/><path class="cls-2" d="M176.54,268.22c.83-3.18.14-5.39-3.37-5.39a5.5,5.5,0,0,0-4.74,2.92,39.14,39.14,0,0,0-2.43,8c-1,4.59-2.29,10.69,2.44,10.69,4,0,5.06-2.52,5.87-5.6h3c-1.21,6.86-6.34,8-8.73,8-8.69,0-7.23-6.81-5.88-13.11.54-2.52,1.5-6.5,2.57-8.42a9.49,9.49,0,0,1,8.78-4.94c4.42,0,6.89,2.47,5.49,7.81Z"/><path class="cls-2" d="M188.1,286.37l5.46-25.46h3l-5.46,25.46Zm6.62-32.57.82-3.83h3.76l-.82,3.83Z"/><path class="cls-2" d="M207.51,286.37h-3l5.46-25.46h3L212.3,264h.1c1.93-2.12,4.23-3.63,7-3.63,6.35,0,6,4.69,5.29,8l-3.85,17.95h-3l3.81-17.8c.64-3,.06-5.75-3.49-5.75-2.74,0-5.94,1.87-7.16,7.56Z"/><path class="cls-2" d="M252,260.86h3c-.62,2.42-.94,3.68-1.22,5l-4.59,21.43c-1.2,5.6-3.64,8.92-11,8.92-6.4,0-6.71-4.49-6-7.06h3c-.83,2.92,1,4.64,3.83,4.64,5.95,0,6.27-3.18,7.9-10.79H247a8.8,8.8,0,0,1-6.86,3.08c-7.37,0-6.53-6.3-5.32-11.95,1.26-5.9,1.33-5.95,2.62-8.67a9.43,9.43,0,0,1,8.29-5c2.59,0,4.9,1.31,5.53,3.58l.08.1Zm-13.95,12.2c-1.13,5.29-2.27,10.59,3.27,10.59a6.41,6.41,0,0,0,5.24-2.87c1.18-2,1.64-3.12,3.23-10.59,1.15-5.34-1.32-7.36-4.16-7.36C240.35,262.82,238.86,269.28,238.05,273.06Z"/><path class="cls-2" d="M285.85,286.87c-5.54,0-7.15-2.67-5.94-8.07H283c-.75,3.48-.43,5.8,3.48,5.8,2.95,0,4.73-1.66,5.33-4.49,1.43-6.66-10.48-4.94-8.67-13.36,1-4.69,4.61-6.35,9.08-6.35,5.08,0,6,3.48,5.13,7.36h-3c.54-3.23,0-4.94-3.41-4.94a4.73,4.73,0,0,0-4.7,3.68c-1.36,6.35,10.54,4.64,8.71,13.16C293.94,284.45,290.63,286.87,285.85,286.87Z"/><path class="cls-2" d="M306.49,276.39l1.18-5.5c1.42-6.6,5.09-10.49,11.09-10.49s8,3.88,6.59,10.49l-1.18,5.5c-1.42,6.6-5.09,10.49-11.09,10.49S305.08,283,306.49,276.39Zm3.64-2.77c-1.43,6.65-1.56,10.84,3.47,10.84s6.69-4.18,8.12-10.84,1.55-10.79-3.48-10.79S311.55,267,310.13,273.61Z"/><path class="cls-2" d="M334.68,286.37l7.8-36.4h3l-7.8,36.4Z"/><path class="cls-2" d="M372.66,260.91l-5.46,25.46h-2.64l.61-2.82h-.1c-2.24,2.17-4.32,3.33-7.17,3.33-5.29,0-5.94-3.83-5.05-8l3.86-18h3L356,278.4c-.15.71-1.45,6,3,6,4.12,0,6.41-3.83,6.79-5.6l3.85-17.95Z"/><path class="cls-2" d="M382.35,263.33l.52-2.42H387l1.12-5.24,3.33-1.31L390,260.91h5.18l-.52,2.42h-5.18L386,279.66c-.72,3.38-.54,4.18,1.9,4.18a16,16,0,0,0,2.42-.15l-.56,2.62a28.41,28.41,0,0,1-2.93.15c-4.12,0-4.95-1.81-4.28-4.94l3.9-18.2Z"/><path class="cls-2" d="M400.94,286.37l5.46-25.46h3L404,286.37Zm6.62-32.57.82-3.83h3.76l-.82,3.83Z"/><path class="cls-2" d="M418.78,276.39l1.18-5.5c1.41-6.6,5.09-10.49,11.09-10.49s8,3.88,6.59,10.49l-1.18,5.5c-1.41,6.6-5.09,10.49-11.09,10.49S417.36,283,418.78,276.39Zm3.64-2.77c-1.43,6.65-1.56,10.84,3.47,10.84s6.69-4.18,8.12-10.84,1.55-10.79-3.48-10.79S423.84,267,422.42,273.61Z"/><path class="cls-2" d="M449,286.37h-3l5.45-25.46h3l-.67,3.13h.1c1.93-2.12,4.23-3.63,7-3.63,6.35,0,6,4.69,5.29,8l-3.85,17.95h-3l3.81-17.8c.64-3,.06-5.75-3.49-5.75-2.74,0-5.94,1.87-7.16,7.56Z"/><path class="cls-2" d="M481.31,286.87c-5.54,0-7.15-2.67-5.94-8.07h3.1c-.75,3.48-.43,5.8,3.48,5.8,2.95,0,4.73-1.66,5.33-4.49,1.43-6.66-10.48-4.94-8.67-13.36,1-4.69,4.61-6.35,9.08-6.35,5.08,0,6,3.48,5.13,7.36h-3c.54-3.23,0-4.94-3.41-4.94a4.73,4.73,0,0,0-4.7,3.68c-1.36,6.35,10.54,4.64,8.71,13.16C489.4,284.45,486.09,286.87,481.31,286.87Z"/><path class="cls-3" d="M232,241.63,264.12,90.27h50.94l1.81,102.93h.42l47-102.93h49.27L381.42,241.63H350.61l24.82-116.77H375L321,241.63H290.86L288,124.86h-.42L262.77,241.63Z"/><path class="cls-3" d="M484,136.81c3.19-14,3.52-26.41-13.25-26.41-19.7,0-25.36,26.62-31.6,56-10.07,47.38-7.24,55.76,10.79,55.76a55.64,55.64,0,0,0,16.35-2.93l7.13-33.54H456.21l4.95-23.27H510L493.7,239.11c-8.95,1.68-31.26,5-43.83,5-53.25,0-54.65-22-42.44-79.45,8.11-38.15,18.24-76.94,70-76.94,31,0,46.61,17.4,38,49.05Z"/><polygon class="cls-4" points="221.49 241.31 253.15 91.18 155.5 91.18 123.83 241.31 221.49 241.31"/><polygon class="cls-5" points="113.01 241.31 144.67 91.18 96.66 91.18 65 241.31 113.01 241.31"/><polygon class="cls-6" points="321.05 241.63 317.29 193.2 290.86 241.63 321.05 241.63"/><polygon class="cls-6" points="262.77 241.63 255.64 211.53 231.95 241.63 262.77 241.63"/><polygon class="cls-6" points="381.2 241.63 374.07 211.53 350.38 241.63 381.2 241.63"/><polygon class="cls-7" points="255.64 211.53 277.48 109.96 287.59 124.86 262.77 241.63 255.64 211.53"/><polygon class="cls-7" points="374.03 211.78 396.89 105.37 413.59 90.27 381.15 241.87 374.03 211.78"/><polygon class="cls-6" points="264.12 90.27 287.59 124.86 315.06 90.27 264.12 90.27"/><polygon class="cls-7" points="370.64 110.78 317.29 193.2 321.05 241.63 375.81 123.4 370.64 110.78"/><polygon class="cls-6" points="364.33 90.27 375 124.86 413.59 90.27 364.33 90.27"/><polygon class="cls-7" points="317.29 193.2 298.51 110.46 315.06 90.27 317.29 193.2"/><path class="cls-8" d="M473.42,97.88c-26.67-.8-39.39,20.19-43.33,33.23s-14.28,66.22-14.77,76.56,6.89,25.6,33.73,23.88,30.77-3.69,30.77-3.69l11.76-65.48H461.16l-4.95,23.27h17.19l-7.13,33.54a55.64,55.64,0,0,1-16.35,2.93c-18,0-20.86-8.39-10.79-55.76,6.24-29.35,11.9-56,31.6-56,16.77,0,16.45,12.37,13.25,26.41h16.47l1.76-24.41S501.29,98.72,473.42,97.88Z"/><polygon class="cls-3" points="487.69 173.7 459.14 173.21 461.16 162.38 510.01 162.38 505.17 170.25 487.69 173.7"/><polygon class="cls-7" points="493.7 239.11 477.11 226.38 487.69 173.7 510.01 162.38 493.7 239.11"/><polygon class="cls-6" points="484 136.81 502.22 112.4 515.44 136.81 484 136.81"/></svg>