<svg id="Layer_1" data-name="Layer 1" xmlns="http://www.w3.org/2000/svg" xmlns:xlink="http://www.w3.org/1999/xlink" viewBox="0 0 459.59 208.44"><defs><style>.cls-1{fill:#005e9d;}.cls-2{fill:#cdcfd0;}.cls-3{fill:#003b69;}.cls-4{fill:#00aeef;}.cls-5{fill:#919396;}.cls-6{fill:#7d7e81;}.cls-7{fill:url(#linear-gradient);}</style><linearGradient id="linear-gradient" x1="501.24" y1="170.32" x2="362.3" y2="163.88" gradientUnits="userSpaceOnUse"><stop offset="0" stop-color="#cdcfd0"/><stop offset="1" stop-color="#7d7e81"/></linearGradient></defs><title>logo1</title><path class="cls-1" d="M54.87,290c-5.54,0-7.15-2.67-5.94-8.07H52c-.75,3.48-.43,5.8,3.48,5.8,2.95,0,4.73-1.66,5.33-4.49,1.43-6.66-10.48-4.94-8.67-13.36,1-4.69,4.61-6.35,9.08-6.35,5.08,0,6,3.48,5.13,7.36h-3c.54-3.23,0-4.94-3.41-4.94a4.72,4.72,0,0,0-4.7,3.68C53.91,276,65.81,274.26,64,282.78,63,287.56,59.65,290,54.87,290Z" transform="translate(-48.55 -90.87)"/><path class="cls-1" d="M75.51,279.5l1.18-5.5c1.42-6.6,5.09-10.49,11.09-10.49s8,3.88,6.59,10.49l-1.18,5.5C91.78,286.1,88.1,290,82.11,290S74.1,286.1,75.51,279.5Zm3.64-2.77c-1.43,6.65-1.56,10.84,3.47,10.84s6.69-4.18,8.12-10.84,1.55-10.79-3.48-10.79S80.57,270.12,79.16,276.73Z" transform="translate(-48.55 -90.87)"/><path class="cls-1" d="M124.3,264l-5.46,25.46h-2.64l.61-2.82h-.1c-2.24,2.17-4.32,3.33-7.17,3.33-5.28,0-5.94-3.83-5.05-8l3.86-18h3l-3.75,17.49c-.15.71-1.45,6,3,6,4.12,0,6.41-3.83,6.79-5.6L121.26,264Z" transform="translate(-48.55 -90.87)"/><path class="cls-1" d="M139.32,267.45h.1a10,10,0,0,1,7.91-3.93l-.66,3.08a7.82,7.82,0,0,0-8.56,6.5l-3.51,16.38h-3L137,264h3Z" transform="translate(-48.55 -90.87)"/><path class="cls-1" d="M166.89,271.33c.83-3.18.14-5.39-3.37-5.39a5.5,5.5,0,0,0-4.74,2.92,39.14,39.14,0,0,0-2.43,8c-1,4.59-2.29,10.69,2.44,10.69,4,0,5.06-2.52,5.87-5.6h3c-1.21,6.86-6.34,8-8.73,8-8.69,0-7.23-6.81-5.88-13.11.54-2.52,1.5-6.5,2.57-8.42a9.49,9.49,0,0,1,8.78-4.94c4.42,0,6.89,2.47,5.49,7.81Z" transform="translate(-48.55 -90.87)"/><path class="cls-1" d="M178.45,289.48,183.9,264h3l-5.46,25.46Zm6.62-32.57.82-3.83h3.76l-.82,3.83Z" transform="translate(-48.55 -90.87)"/><path class="cls-1" d="M197.86,289.48h-3L200.26,264h3l-.67,3.13h.1c1.93-2.12,4.23-3.63,7-3.63,6.35,0,6,4.69,5.29,8l-3.85,17.95h-3l3.81-17.8c.64-3,.06-5.75-3.49-5.75-2.74,0-5.94,1.87-7.16,7.56Z" transform="translate(-48.55 -90.87)"/><path class="cls-1" d="M242.34,264h3c-.62,2.42-.94,3.68-1.22,5l-4.59,21.43c-1.2,5.6-3.64,8.92-11,8.92-6.4,0-6.71-4.49-6-7.06h3c-.83,2.92,1,4.64,3.83,4.64,5.95,0,6.27-3.18,7.9-10.79h-.1a8.8,8.8,0,0,1-6.86,3.08c-7.37,0-6.53-6.3-5.32-11.95,1.26-5.9,1.33-5.95,2.62-8.67a9.43,9.43,0,0,1,8.29-5c2.59,0,4.9,1.31,5.53,3.58l.08.1Zm-13.95,12.2c-1.13,5.29-2.27,10.59,3.27,10.59a6.41,6.41,0,0,0,5.24-2.87c1.18-2,1.64-3.12,3.23-10.59,1.15-5.34-1.32-7.36-4.16-7.36C230.69,265.94,229.21,272.39,228.4,276.17Z" transform="translate(-48.55 -90.87)"/><path class="cls-1" d="M276.2,290c-5.54,0-7.15-2.67-5.94-8.07h3.1c-.75,3.48-.43,5.8,3.48,5.8,2.95,0,4.73-1.66,5.33-4.49,1.43-6.66-10.48-4.94-8.67-13.36,1-4.69,4.61-6.35,9.08-6.35,5.08,0,6,3.48,5.13,7.36h-3c.54-3.23,0-4.94-3.41-4.94a4.73,4.73,0,0,0-4.7,3.68c-1.36,6.35,10.54,4.64,8.71,13.16C284.29,287.56,281,290,276.2,290Z" transform="translate(-48.55 -90.87)"/><path class="cls-1" d="M296.84,279.5,298,274c1.42-6.6,5.09-10.49,11.09-10.49s8,3.88,6.59,10.49l-1.18,5.5c-1.41,6.6-5.09,10.49-11.09,10.49S295.42,286.1,296.84,279.5Zm3.64-2.77c-1.43,6.65-1.56,10.84,3.47,10.84s6.69-4.18,8.12-10.84,1.55-10.79-3.48-10.79S301.89,270.12,300.48,276.73Z" transform="translate(-48.55 -90.87)"/><path class="cls-1" d="M325,289.48l7.8-36.4h3l-7.8,36.4Z" transform="translate(-48.55 -90.87)"/><path class="cls-1" d="M363,264l-5.46,25.46h-2.64l.61-2.82h-.1c-2.24,2.17-4.32,3.33-7.17,3.33-5.29,0-5.94-3.83-5.05-8L347,264h3l-3.75,17.49c-.15.71-1.45,6,3,6,4.12,0,6.41-3.83,6.79-5.6L360,264Z" transform="translate(-48.55 -90.87)"/><path class="cls-1" d="M372.7,266.44l.52-2.42h4.12l1.12-5.24,3.33-1.31L380.38,264h5.18l-.52,2.42h-5.18l-3.5,16.33c-.72,3.38-.54,4.18,1.9,4.18a16,16,0,0,0,2.42-.15l-.56,2.62a28.41,28.41,0,0,1-2.93.15c-4.12,0-4.95-1.81-4.28-4.94l3.9-18.2Z" transform="translate(-48.55 -90.87)"/><path class="cls-1" d="M391.29,289.48,396.74,264h3l-5.46,25.46Zm6.62-32.57.82-3.83h3.76l-.82,3.83Z" transform="translate(-48.55 -90.87)"/><path class="cls-1" d="M409.12,279.5l1.18-5.5c1.41-6.6,5.09-10.49,11.09-10.49s8,3.88,6.59,10.49l-1.18,5.5c-1.41,6.6-5.09,10.49-11.09,10.49S407.71,286.1,409.12,279.5Zm3.64-2.77c-1.43,6.65-1.56,10.84,3.47,10.84s6.69-4.18,8.12-10.84,1.55-10.79-3.48-10.79S414.18,270.12,412.77,276.73Z" transform="translate(-48.55 -90.87)"/><path class="cls-1" d="M439.35,289.48h-3L441.76,264h3l-.67,3.13h.1c1.93-2.12,4.23-3.63,7-3.63,6.35,0,6,4.69,5.29,8l-3.85,17.95h-3l3.81-17.8c.64-3,.06-5.75-3.49-5.75-2.74,0-5.94,1.87-7.16,7.56Z" transform="translate(-48.55 -90.87)"/><path class="cls-1" d="M471.66,290c-5.54,0-7.15-2.67-5.94-8.07h3.1c-.75,3.48-.43,5.8,3.48,5.8,2.95,0,4.73-1.66,5.33-4.49,1.43-6.66-10.48-4.94-8.67-13.36,1-4.69,4.61-6.35,9.08-6.35,5.08,0,6,3.48,5.13,7.36h-3c.54-3.23,0-4.94-3.41-4.94a4.73,4.73,0,0,0-4.7,3.68c-1.36,6.35,10.54,4.64,8.71,13.16C479.75,287.56,476.43,290,471.66,290Z" transform="translate(-48.55 -90.87)"/><path class="cls-2" d="M222.3,244.74,254.47,93.38h50.94l1.81,102.93h.42l47-102.93h49.27L371.77,244.74H341L365.77,128h-.42l-54,116.77H281.21L278.35,128h-.42L253.11,244.74Z" transform="translate(-48.55 -90.87)"/><path class="cls-2" d="M474.34,139.92c3.19-14,3.52-26.41-13.25-26.41-19.7,0-25.36,26.62-31.6,56-10.07,47.38-7.24,55.76,10.79,55.76a55.64,55.64,0,0,0,16.35-2.93l7.13-33.54H446.56l4.95-23.27h48.84L484,242.22c-8.95,1.68-31.26,5-43.83,5-53.25,0-54.65-22-42.44-79.45,8.11-38.15,18.24-76.94,70-76.94,31,0,46.61,17.4,38,49.05Z" transform="translate(-48.55 -90.87)"/><polygon class="cls-3" points="163.28 153.55 194.94 3.43 97.29 3.43 65.63 153.55 163.28 153.55"/><polygon class="cls-4" points="54.8 153.55 86.46 3.43 38.45 3.43 6.79 153.55 54.8 153.55"/><polygon class="cls-5" points="262.84 153.87 259.09 105.45 232.65 153.87 262.84 153.87"/><polygon class="cls-5" points="204.56 153.87 197.44 123.78 173.75 153.87 204.56 153.87"/><polygon class="cls-5" points="322.99 153.87 315.87 123.78 292.18 153.87 322.99 153.87"/><polygon class="cls-6" points="197.44 123.78 219.27 22.21 229.38 37.11 204.56 153.87 197.44 123.78"/><polygon class="cls-6" points="315.82 124.02 338.69 17.62 355.39 2.52 322.95 154.12 315.82 124.02"/><polygon class="cls-5" points="205.91 2.52 229.38 37.11 256.86 2.52 205.91 2.52"/><polygon class="cls-6" points="312.43 23.03 259.09 105.45 262.84 153.87 317.61 35.64 312.43 23.03"/><polygon class="cls-5" points="306.12 2.52 316.8 37.11 355.39 2.52 306.12 2.52"/><polygon class="cls-6" points="259.09 105.45 240.31 22.71 256.86 2.52 259.09 105.45"/><path class="cls-7" d="M463.76,101c-26.67-.8-39.39,20.19-43.33,33.23s-14.28,66.22-14.77,76.56,6.89,25.6,33.73,23.88S470.16,231,470.16,231l11.76-65.48H451.51l-4.95,23.27h17.19l-7.13,33.54a55.64,55.64,0,0,1-16.35,2.93c-18,0-20.86-8.39-10.79-55.76,6.24-29.35,11.9-56,31.6-56,16.77,0,16.45,12.37,13.25,26.41h16.47l1.76-24.41S491.64,101.83,463.76,101Z" transform="translate(-48.55 -90.87)"/><polygon class="cls-2" points="429.49 85.95 400.93 85.46 402.95 74.63 451.8 74.63 446.97 82.5 429.49 85.95"/><polygon class="cls-6" points="435.49 151.36 418.9 138.63 429.49 85.95 451.8 74.63 435.49 151.36"/><polygon class="cls-5" points="425.79 49.05 444.01 24.65 457.24 49.05 425.79 49.05"/></svg>